<?xml version="1.0" standalone="no"?>
<!DOCTYPE svg PUBLIC "-//W3C//DTD SVG 20010904//EN"
 "http://www.w3.org/TR/2001/REC-SVG-20010904/DTD/svg10.dtd">
<svg version="1.0" xmlns="http://www.w3.org/2000/svg"
 width="195.000000pt" height="259.000000pt" viewBox="0 0 195.000000 259.000000"
 preserveAspectRatio="xMidYMid meet">

<g transform="translate(0.000000,259.000000) scale(0.100000,-0.100000)"
fill="#000000" stroke="none">
<path d="M910 2338 c-14 -7 -56 -12 -95 -12 -69 -1 -70 -1 -72 -30 -1 -15 -5
-31 -8 -34 -7 -7 -1 -7 -325 -18 -312 -10 -328 -10 -375 -2 -27 5 -35 4 -25
-2 10 -6 11 -10 3 -10 -8 0 -13 -13 -13 -30 0 -28 3 -30 35 -30 20 0 50 6 68
13 23 10 55 12 117 7 72 -6 100 -4 182 16 76 19 122 24 208 23 92 -1 108 -4
99 -15 -6 -8 -26 -14 -43 -14 -23 0 -27 -3 -16 -10 12 -8 12 -10 -3 -16 -9 -3
-47 -37 -84 -75 -40 -42 -75 -69 -87 -69 -17 0 -18 -2 -7 -9 24 -15 -6 -41
-45 -41 -19 0 -34 -5 -34 -11 0 -5 4 -8 9 -5 5 3 12 -1 15 -10 3 -8 10 -13 15
-9 9 5 5 -264 -5 -294 -3 -9 -13 -11 -32 -6 -15 3 -37 9 -49 12 -18 4 -23 1
-23 -16 0 -23 35 -31 42 -9 3 7 9 8 19 3 8 -5 22 -8 32 -7 23 4 22 -9 -4 -42
-16 -20 -18 -30 -10 -40 6 -7 8 -21 5 -30 -4 -11 1 -22 15 -32 31 -22 26 -32
-16 -36 -38 -3 -38 -3 -43 -53 -3 -28 -4 -58 -2 -68 4 -21 22 -23 22 -2 0 18
20 57 35 67 5 4 17 0 26 -8 8 -7 21 -14 27 -14 24 0 11 -30 -15 -36 -48 -10
-53 -13 -53 -32 0 -22 22 -72 33 -72 4 0 7 7 7 15 0 14 65 33 77 22 8 -9 11
-204 3 -216 -4 -8 -18 -7 -44 4 -44 19 -58 15 -21 -5 35 -19 29 -48 -13 -66
-18 -7 -30 -9 -27 -4 8 13 3 12 -30 0 -16 -6 -41 -7 -67 -1 -37 9 -105 3 -265
-23 -12 -2 -20 1 -17 5 6 11 -7 11 -21 1 -17 -12 -16 -32 3 -33 145 -6 245
-17 252 -29 7 -11 11 -11 23 -1 12 9 16 9 20 -1 3 -7 6 -8 6 -3 1 6 22 9 51 7
35 -3 58 1 77 13 35 23 43 9 43 -86 0 -59 3 -78 15 -83 8 -3 15 -17 15 -30 0
-20 4 -24 17 -19 13 5 15 2 11 -15 -4 -12 0 -26 8 -33 8 -7 12 -20 8 -31 -3
-10 2 -30 11 -45 9 -14 15 -34 12 -44 -3 -12 2 -27 13 -37 9 -9 21 -27 24 -39
4 -13 12 -23 17 -23 5 0 9 -7 9 -15 0 -27 40 -95 55 -95 8 0 15 -9 15 -20 0
-11 7 -23 15 -26 8 -4 15 -14 15 -23 0 -23 29 -63 41 -56 5 4 9 -3 9 -13 0
-11 6 -25 14 -31 44 -37 12 -91 -54 -91 -22 0 -40 -4 -40 -10 0 -5 -11 2 -25
15 -13 14 -31 25 -40 25 -8 0 -15 5 -15 11 0 6 -11 20 -24 30 -14 11 -28 28
-31 39 -4 11 -12 20 -20 20 -7 0 -18 12 -24 28 -7 15 -22 45 -36 67 -17 29
-24 57 -25 100 -2 46 -4 54 -10 35 -7 -23 -8 -23 -9 -3 -1 12 3 25 9 28 13 8
13 85 -1 85 -5 0 -8 -4 -5 -9 3 -5 -7 -11 -22 -14 -18 -4 -46 -27 -77 -62
l-48 -57 -61 7 c-34 4 -92 8 -131 10 -38 2 -82 6 -97 10 -27 7 -28 6 -28 -27
l0 -34 53 1 c28 1 72 4 97 8 25 3 69 9 98 12 l54 6 -55 -68 c-31 -38 -58 -80
-62 -95 -5 -21 -28 -40 -96 -80 l-89 -53 0 -42 0 -43 866 0 c574 0 863 3 859
10 -3 5 1 10 10 10 9 0 13 5 10 10 -3 6 -23 10 -43 10 -52 0 -98 32 -190 131
-85 92 -165 169 -176 169 -3 0 -6 -40 -6 -89 0 -91 -19 -167 -35 -140 -7 10
-10 9 -14 -3 -5 -15 -8 -15 -26 -2 -17 13 -20 26 -19 89 0 46 -4 75 -10 76 -6
0 -2 4 10 9 12 5 25 25 33 51 7 24 17 53 21 64 22 56 42 102 50 115 51 83 90
162 95 195 4 22 9 47 12 55 3 8 5 34 5 58 0 25 4 42 11 42 7 0 4 7 -7 15 -10
7 -15 18 -11 24 3 6 0 11 -8 11 -8 0 -22 9 -31 19 -10 11 -32 23 -50 27 -17 3
-47 19 -66 34 -70 54 -82 47 -55 -31 9 -26 12 -46 6 -52 -5 -5 -12 -1 -15 11
-5 16 -18 21 -59 25 -29 3 -72 11 -96 18 -35 11 -45 11 -48 2 -3 -7 -13 -13
-24 -13 -10 0 -19 6 -19 13 1 24 29 62 46 62 10 0 20 7 22 16 4 19 -36 33 -54
19 -13 -12 -93 -38 -148 -50 -33 -7 -49 -3 -103 21 -38 18 -63 36 -63 45 0 9
-8 18 -18 21 -46 11 -73 128 -49 212 9 37 31 64 41 54 3 -4 6 1 6 10 0 9 -5
17 -11 17 -7 0 0 10 15 21 31 24 43 20 27 -9 -14 -26 -14 -77 -1 -103 7 -12
21 -19 38 -19 15 0 35 -8 44 -17 40 -42 58 -55 108 -79 57 -27 56 -27 142 -24
52 2 58 5 68 31 7 15 22 35 35 43 23 15 23 14 45 -47 42 -119 27 -107 132
-100 80 5 98 9 128 33 19 15 43 30 53 33 9 4 17 15 17 26 0 11 5 23 10 26 6 4
10 -22 10 -71 0 -67 2 -75 15 -64 8 7 16 29 16 49 l2 36 7 -35 7 -35 10 26
c21 50 26 115 10 131 -16 16 -12 66 7 83 6 6 12 23 13 39 3 74 16 136 29 146
7 7 76 17 151 24 76 6 144 15 151 19 26 17 1 24 -55 16 -32 -5 -88 -10 -125
-11 -36 -2 -64 -6 -61 -10 8 -15 -15 -8 -35 10 -17 14 -20 25 -15 69 3 29 9
51 13 48 14 -9 18 34 4 46 -8 6 -14 16 -14 21 0 6 7 4 16 -3 14 -11 13 -6 -4
26 -12 24 -18 51 -15 66 3 17 -2 32 -13 43 -14 15 -15 19 -3 27 11 7 7 15 -21
38 -19 16 -32 33 -27 37 4 4 7 2 7 -4 0 -6 7 -9 15 -6 27 11 16 32 -27 50 -38
16 -40 18 -19 22 l24 4 -29 19 -29 19 33 0 c20 0 31 4 27 10 -3 6 -15 10 -26
10 -10 0 -19 6 -19 13 0 13 -37 31 -90 43 l-35 8 35 7 35 6 -32 8 c-37 8 -42
19 -15 34 14 9 12 10 -15 11 -30 0 -121 16 -152 26 -11 4 -10 7 4 18 16 11 12
14 -32 19 -27 3 -69 3 -93 0 -37 -5 -42 -4 -37 10 8 21 -9 22 -56 2 -41 -17
-60 -20 -37 -5 12 7 12 12 -4 29 -21 23 -65 27 -106 9z m95 -18 c-3 -5 -11
-10 -16 -10 -6 0 -7 5 -4 10 3 6 11 10 16 10 6 0 7 -4 4 -10z m-78 -533 c21
-14 79 -39 128 -57 88 -32 145 -74 145 -107 0 -20 148 -22 161 -2 3 6 24 7 47
3 29 -4 47 -2 58 7 13 10 17 10 25 -2 5 -8 9 -22 9 -31 0 -9 5 -20 11 -24 8
-4 9 -26 4 -68 -4 -33 -7 -90 -7 -124 1 -53 -2 -63 -14 -58 -9 3 -19 6 -24 6
-5 0 -15 6 -22 13 -22 21 -111 38 -215 42 -54 2 -110 8 -125 14 -15 6 -44 12
-65 15 -45 5 -76 16 -84 29 -4 5 -15 5 -27 -2 -29 -16 -173 -14 -194 3 -17 12
-15 17 22 59 43 49 49 67 24 88 -9 7 -13 21 -10 34 3 12 -1 30 -8 41 -7 10
-16 38 -18 61 -5 37 -4 42 18 47 13 4 24 11 24 16 0 5 7 7 15 4 10 -4 15 0 15
11 0 24 55 15 107 -18z m48 -894 c8 -20 17 -48 20 -63 4 -23 1 -28 -20 -32
-16 -3 -33 2 -47 13 -11 11 -27 19 -34 19 -47 0 8 95 58 99 4 1 15 -15 23 -36z
m-64 -213 c22 -13 25 -28 5 -36 -13 -5 -56 27 -56 41 0 9 31 5 51 -5z m129 0
c0 -5 -4 -10 -9 -10 -6 0 -13 5 -16 10 -3 6 1 10 9 10 9 0 16 -4 16 -10z m160
-12 c0 -10 -98 -9 -123 1 -11 4 13 7 52 7 39 0 71 -4 71 -8z m80 -26 c0 -10
-41 -35 -47 -28 -9 8 17 36 33 36 8 0 14 -3 14 -8z m-400 -46 c0 -3 -9 -6 -20
-6 -19 0 -27 20 -14 33 6 6 34 -16 34 -27z m138 -103 c-2 -11 -14 -19 -31 -21
-31 -4 -35 5 -9 24 24 19 44 17 40 -3z"/>
<path d="M1840 2340 c-36 -4 -76 -12 -90 -18 -32 -14 -154 -32 -221 -32 -29 0
-49 -3 -45 -7 11 -11 108 -4 296 23 14 1 58 6 98 10 51 5 72 11 72 20 0 15 -8
15 -110 4z"/>
<path d="M478 2273 c7 -3 16 -2 19 1 4 3 -2 6 -13 5 -11 0 -14 -3 -6 -6z"/>
<path d="M1490 2166 c0 -2 7 -7 16 -10 8 -3 12 -2 9 4 -6 10 -25 14 -25 6z"/>
<path d="M367 2013 c-12 -11 -8 -23 8 -23 8 0 15 7 15 15 0 16 -12 20 -23 8z"/>
<path d="M306 1948 c3 -4 9 -8 15 -8 5 0 9 4 9 8 0 5 -7 9 -15 9 -8 0 -12 -4
-9 -9z"/>
<path d="M128 1943 c7 -3 16 -2 19 1 4 3 -2 6 -13 5 -11 0 -14 -3 -6 -6z"/>
<path d="M190 1710 c-8 -5 -28 -10 -45 -11 -16 0 -24 -3 -17 -6 6 -2 12 -11
12 -19 0 -25 21 -16 54 24 21 24 20 27 -4 12z"/>
<path d="M223 1693 c9 -2 17 -9 17 -14 0 -6 5 -7 11 -3 14 8 -8 24 -31 23 -11
-1 -10 -3 3 -6z"/>
<path d="M115 1631 c-3 -6 5 -15 17 -21 21 -10 21 -10 6 3 -10 8 -15 17 -11
20 3 4 4 7 0 7 -3 0 -8 -4 -12 -9z"/>
<path d="M85 1603 c-33 -8 -42 -23 -13 -23 14 0 28 7 32 15 3 8 4 14 3 14 -1
-1 -11 -3 -22 -6z"/>
<path d="M264 1585 c10 -8 24 -11 29 -8 6 4 2 10 -9 14 -31 12 -40 9 -20 -6z"/>
<path d="M48 1543 c6 -2 18 -2 25 0 6 3 1 5 -13 5 -14 0 -19 -2 -12 -5z"/>
<path d="M321 1521 c-12 -22 -95 -71 -122 -71 -10 0 -21 -4 -24 -10 -9 -15
-28 -12 -22 3 4 10 -2 13 -19 9 -13 -2 -24 -10 -24 -17 0 -8 -21 -15 -55 -20
-50 -6 -55 -9 -55 -31 0 -24 1 -25 48 -17 26 4 63 8 83 8 20 0 35 4 33 10 -2
6 6 11 18 11 13 1 34 3 48 4 14 2 34 -1 45 -5 19 -8 19 -7 3 11 -12 14 -13 22
-5 30 7 6 27 27 45 47 18 21 41 37 52 37 11 0 20 5 20 10 0 19 -59 11 -69 -9z"/>
<path d="M1685 1373 c-44 -11 -30 -18 37 -20 66 -2 88 5 36 12 -12 1 -30 5
-38 8 -8 2 -24 2 -35 0z"/>
<path d="M466 1192 c-2 -4 0 -14 5 -22 8 -13 10 -13 18 0 10 15 6 30 -9 30 -5
0 -11 -4 -14 -8z"/>
<path d="M1536 1035 c-3 -8 -1 -15 3 -15 5 0 11 7 15 15 3 8 1 15 -3 15 -5 0
-11 -7 -15 -15z"/>
<path d="M1580 1011 c34 -28 103 -41 214 -41 103 0 156 7 156 22 0 6 -13 6
-32 2 -53 -14 -233 -6 -280 12 -76 28 -86 29 -58 5z"/>
<path d="M1880 526 c-19 -5 -37 -12 -40 -15 -3 -4 -34 -7 -70 -8 -36 0 -95 -4
-132 -8 -60 -7 -66 -9 -52 -23 16 -16 66 -14 219 8 133 19 145 22 145 35 0 18
-29 23 -70 11z"/>
<path d="M1503 523 c9 -2 23 -2 30 0 6 3 -1 5 -18 5 -16 0 -22 -2 -12 -5z"/>
<path d="M385 510 c-3 -5 -1 -10 4 -10 6 0 11 5 11 10 0 6 -2 10 -4 10 -3 0
-8 -4 -11 -10z"/>
<path d="M50 474 c-16 -8 -19 -14 -9 -14 8 0 24 7 35 15 24 18 7 18 -26 -1z"/>
<path d="M350 480 c-8 -5 -10 -10 -5 -10 6 0 17 5 25 10 8 5 11 10 5 10 -5 0
-17 -5 -25 -10z"/>
<path d="M1534 475 c8 -8 17 -15 20 -15 3 0 6 7 6 15 0 9 -9 15 -21 15 -18 0
-19 -2 -5 -15z"/>
<path d="M0 440 c0 -5 7 -10 16 -10 8 0 12 5 9 10 -3 6 -10 10 -16 10 -5 0 -9
-4 -9 -10z"/>
<path d="M65 420 c-3 -5 -2 -10 4 -10 5 0 13 5 16 10 3 6 2 10 -4 10 -5 0 -13
-4 -16 -10z"/>
<path d="M1765 40 c-8 -13 5 -13 25 0 13 8 13 10 -2 10 -9 0 -20 -4 -23 -10z"/>
</g>
</svg>
